# AST/ASF file generated using VICON BodyLanguage
# -----------------------------------------------
:version 1.10
:name VICON
:units
  mass 1.0
  length 0.45
  angle deg
:documentation
   .ast/.asf automatically generated from VICON data using
   VICON BodyBuilder and BodyLanguage model FoxedUp or BRILLIANT.MOD
:root
   order TX TY TZ RX RY RZ
   axis XYZ
   position 0 0 0  
   orientation 0 0 0 
:bonedata
  begin
     id 1 
     name lhipjoint
     direction 0.570549 -0.739093 0.358072 
     length 2.41801 
     axis 0 0 0  XYZ
  end
  begin
     id 2 
     name lfemur
     direction 0.34202 -0.939693 0  
     length 7.44434  
     axis 0 0 20  XYZ
    dof rx ry rz
    limits (-160.0 20.0)
           (-70.0 70.0)
           (-60.0 70.0)
  end
  begin
     id 3 
     name ltibia
     direction 0.34202 -0.939693 0   
     length 7.60047   
     axis 0 0 20   XYZ
    dof rx
    limits (-10.0 170.0)
  end
  begin
     id 4 
     name lfoot
     direction 0.0909041 -0.249757 0.964032   
     length 2.03437   
     axis -90 7.62852e-016 20   XYZ
    dof rx rz
    limits (-45.0 90.0)
           (-70.0 20.0)
  end
  begin
     id 5 
     name ltoes
     direction 1.53547e-011 -4.2174e-011 1   
     length 1.02054   
     axis -90 7.62852e-016 20   XYZ
    dof rx
    limits (-90.0 20.0)
  end
  begin
     id 6 
     name rhipjoint
     direction -0.558096 -0.746754 0.361784   
     length 2.3932  
     axis 0 0 0  XYZ 
  end
  begin
     id 7 
     name rfemur
     direction -0.34202 -0.939693 0   
     length 7.3886   
     axis 0 0 -20   XYZ
    dof rx ry rz
    limits (-160.0 20.0)
           (-70.0 70.0)
           (-70.0 60.0)
  end
  begin
     id 8 
     name rtibia
     direction -0.34202 -0.939693 0   
     length 7.4839   
     axis 0 0 -20   XYZ
    dof rx
    limits (-10.0 170.0)
 end
 begin
     id 9 
     name rfoot
     direction -0.114619 -0.314914 0.942174   
     length 2.25127  
     axis -90 -7.62852e-016 -20   XYZ
    dof rx rz
    limits (-45.0 90.0)
           (-20.0 70.0)
  end
  begin
     id 10 
     name rtoes
     direction -1.53518e-011 -4.21881e-011 1   
     length 1.11821   
     axis -90 -7.62852e-016 -20   XYZ
    dof rx
    limits (-90.0 20.0)
  end
  begin
     id 11 
     name lowerback
     direction -0.00902269 0.996426 -0.0839821   
     length 2.25052   
     axis 0 0 0   XYZ
    dof rx ry rz
    limits (-20.0 45.0)
           (-30.0 30.0)
           (-30.0 30.0)
  end
  begin
     id 12 
     name upperback
     direction 0.0370973 0.999169 -0.0168941   
     length 2.24876   
     axis 0 0 0   XYZ
    dof rx ry rz
    limits (-20.0 45.0)
           (-30.0 30.0)
           (-30.0 30.0)
  end
  begin
     id 13 
     name thorax
     direction 0.0402726 0.998931 0.0227027   
     length 2.26408   
     axis 0 0 0   XYZ
    dof rx ry rz
    limits (-20.0 45.0)
           (-30.0 30.0)
           (-30.0 30.0)
  end
  begin
     id 14 
     name lowerneck
     direction -0.0733697 0.98508 0.155675   
     length 1.58204   
     axis 0 0 0   XYZ
    dof rx ry rz
    limits (-20.0 45.0)
           (-30.0 30.0)
           (-30.0 30.0)
  end
  begin
     id 15 
     name upperneck
     direction 0.0426554 0.993501 -0.105526   
     length 1.61222   
     axis 0 0 0   XYZ
    dof rx ry rz
    limits (-20.0 45.0)
           (-30.0 30.0)
           (-30.0 30.0)
  end
  begin
     id 16
     name head
     direction 0.020792 0.998384 -0.0528868  
     length 1.61527  
     axis 0 0 0   XYZ
    dof rx ry rz
    limits (-20.0 45.0)
           (-30.0 30.0)
           (-30.0 30.0)
  end
  begin
     id 17 
     name lclavicle
     direction 0.967109 0.155462 -0.201325  
     length 3.59357  
     axis 0 0 0   XYZ
    dof ry rz
    limits (-20.0 10.0)
           (0.0 20.0)
  end
  begin
     id 18 
     name lhumerus
     direction 1 -4.48968e-011 2.38195e-027   
     length 5.38154   
     axis 180 -30 -90   XYZ
    dof rx ry rz
    limits (-60.0 90.0)
           (-90.0 90.0)
           (-90.0 90.0)
  end
  begin
     id 19
     name lradius
     direction 1 -4.48961e-011 4.85371e-027   
     length 3.33312   
     axis 180 -30 -90   XYZ
    dof rx
    limits (-10.0 170.0)
  end
  begin
     id 20
     name lwrist
     direction 1 -4.48961e-011 4.76515e-027   
     length 1.66656   
     axis -3.27502e-015 90 90   XYZ
    dof ry
    limits (-180.0 0.0)
 end
  begin
     id 21 
     name lhand
     direction 1 -4.48951e-011 9.53074e-027   
     length 0.710789   
     axis -6.08098e-015 90 90   XYZ
    dof rx rz
    limits (-90.0 90.0)
           (-45.0 45.0)
  end
  begin
     id 22 
     name lfingers
     direction 1 -4.48953e-011 1.90613e-026   
     length 0.573057   
     axis -1.21619e-014 90 90   XYZ
    dof rx
    limits (0.0 90.0)
  end
  begin
     id 23
     name lthumb
     direction 0.707107 -6.34973e-011 0.707107   
     length 0.822798   
     axis -90 45 -9.86923e-015   XYZ
    dof rx rz
    limits (-45.0 45.0)
           (-45.0 45.0)
  end
  begin
     id 24 
     name rclavicle
     direction -0.9585 0.265289 -0.104398   
     length 3.42039  
     axis 0 0 0   XYZ 
    dof ry rz
    limits (-10.0 20.0)
           (-20.0 0.0)
  end
  begin
     id 25 
     name rhumerus
     direction -1 -4.48977e-011 2.21478e-027  
     length 5.16954   
     axis 180 30 90   XYZ
    dof rx ry rz
    limits (-90.0 60.0)
           (-90.0 90.0)
           (-90.0 90.0)
  end
  begin
     id 26 
     name rradius
     direction -1 -4.48967e-011 5.63677e-027   
     length 3.38287   
     axis 180 30 90   XYZ
    dof rx
    limits (-10.0 170.0)
  end
  begin
     id 27 
     name rwrist
     direction -1 -4.48967e-011 4.76501e-027   
     length 1.69144   
     axis -3.27502e-015 -90 -90   XYZ
    dof ry
    limits (-180.0 0.0)
  end
  begin
     id 28
     name rhand
     direction -1 -4.48902e-011 9.53292e-027   
     length 0.817967   
     axis -6.08098e-015 -90 -90   XYZ
    dof rx rz
    limits (-90.0 90.0)
           (-45.0 45.0)
  end
  begin
     id 29
     name rfingers
     direction -1 -4.49012e-011 1.90561e-026   
     length 0.659466   
     axis -1.21619e-014 -90 -90   XYZ
    dof rx
    limits (0.0 90.0)
  end
  begin
     id 30
     name rthumb
     direction -0.707107 -6.34944e-011 0.707107   
     length 0.946865   
     axis -90 -45 9.86923e-015   XYZ
    dof rx rz
    limits (-45.0 45.0)
           (-45.0 45.0)
  end
:hierarchy
  begin
    root lhipjoint rhipjoint lowerback
    lhipjoint lfemur
    lfemur ltibia
    ltibia lfoot
    lfoot ltoes
    rhipjoint rfemur
    rfemur rtibia
    rtibia rfoot
    rfoot rtoes
    lowerback upperback
    upperback thorax
    thorax lowerneck lclavicle rclavicle
    lowerneck upperneck
    upperneck head
    lclavicle lhumerus
    lhumerus lradius
    lradius lwrist
    lwrist lhand lthumb
    lhand lfingers
    rclavicle rhumerus
    rhumerus rradius
    rradius rwrist
    rwrist rhand rthumb
    rhand rfingers
  end

#!OML:ASF F:\twosubjects\two\wednesday\Session 1\Justin1.ASF
:FULLY-SPECIFIED
:DEGREES
116
root 3.57798 17.3038 2.43935 3.64968 -11.4937 -9.9353
lowerback 0.409675 4.6859 10.2565
upperback -0.280666 6.29443 3.95658
thorax 0.12688 3.12217 -1.57534
lowerneck -17.9153 -3.27794 -8.91671
upperneck 20.5273 -3.31321 5.41279
head 9.70875 -1.62504 2.92194
rclavicle -4.76586e-014 -4.49253e-014
rhumerus -1.54234 -10.2757 -85.7856
rradius 41.2201
rwrist -24.5649
rhand -18.2513 20.3746
rfingers 7.12502
rthumb 8.02778 -9.45295
lclavicle -4.76586e-014 -4.49253e-014
lhumerus -51.6911 27.2043 65.148
lradius 17.5032
lwrist -23.8392
lhand 4.39452 40.7629
lfingers 7.12502
lthumb 29.7923 68.3876
rfemur 22.8958 6.2041 33.8472
rtibia -5.08889e-014
rfoot -6.42273 6.01722
rtoes -7.57607
lfemur -36.623 1.95198 -5.8617
ltibia 28.4154
lfoot -18.7386 1.44656
ltoes -20.7041
117
root 3.59063 17.3013 2.65419 3.85491 -11.649 -9.62127
lowerback 0.0265019 4.75873 9.84268
upperback -0.44669 6.35325 3.90087
thorax 0.136989 3.14902 -1.38442
lowerneck -17.7485 -3.30802 -8.91529
upperneck 20.8031 -3.30737 5.11623
head 9.77088 -1.66149 2.82185
rclavicle 4.90377e-014 -6.20208e-014
rhumerus -1.78394 -10.1869 -85.6326
rradius 41.4588
rwrist -24.7182
rhand -18.3372 20.4837
rfingers 7.12502
rthumb 7.94485 -9.34696
lclavicle 4.90377e-014 -6.20208e-014
lhumerus -53.2557 28.3927 62.9305
lradius 16.8675
lwrist -25.425
lhand 4.49021 39.7038
lfingers 7.12502
lthumb 29.8836 67.312
rfemur 23.3381 6.3578 33.3421
rtibia -8.90555e-014
rfoot -5.4497 6.05669
rtoes -8.52922
lfemur -36.0473 1.94456 -6.29028
ltibia 28.3029
lfoot -18.5842 0.362942
ltoes -18.0674
118
root 3.61042 17.3021 2.87334 3.65693 -11.8854 -8.83095
lowerback -0.0605069 4.96435 9.27633
upperback -0.4674 6.61808 3.56749
thorax 0.166918 3.28413 -1.40829
lowerneck -17.4513 -3.46293 -9.11698
upperneck 20.7715 -3.51925 5.22005
head 9.72784 -1.76747 2.86383
rclavicle 1.39708e-014 7.95139e-015
rhumerus -1.9913 -10.7308 -85.5085
rradius 41.8338
rwrist -24.6756
rhand -18.387 20.3905
rfingers 7.12502
rthumb 7.89687 -9.44198
lclavicle 1.39708e-014 7.95139e-015
lhumerus -54.3819 28.9976 61.211
lradius 16.6781
lwrist -26.3828
lhand 4.78499 39.3783
lfingers 7.12502
lthumb 30.1649 66.9356
rfemur 24.1033 6.51297 32.3204
rtibia 0
rfoot -4.31284 6.13552
rtoes -9.3736
lfemur -35.0767 1.26236 -7.0873
ltibia 28.3089
lfoot -18.5933 0.429966
ltoes -15.4186
119
root 3.63431 17.3173 3.09676 3.44496 -12.086 -8.06178
lowerback -0.254692 5.13246 8.74411
upperback -0.356547 6.81086 3.25962
thorax 0.386 3.3927 -1.40621
lowerneck -17.634 -3.54324 -9.33149
upperneck 20.7605 -3.65317 5.63454
head 9.78042 -1.79677 3.02677
rclavicle 3.32281e-014 3.22031e-014
rhumerus -1.93292 -11.1959 -85.4152
rradius 41.9827
rwrist -24.5648
rhand -18.2733 20.2248
rfingers 7.12502
rthumb 8.00656 -9.60352
lclavicle 3.32281e-014 3.22031e-014
lhumerus -55.2227 29.9707 59.442
lradius 16.3289
lwrist -27.701
lhand 4.90298 40.1068
lfingers 7.12502
lthumb 30.2774 67.6434
rfemur 24.8111 6.64009 31.3135
rtibia -4.13472e-014
rfoot -2.91115 6.16851
rtoes -10.12
lfemur -34.2143 1.2199 -8.20969
ltibia 28.4938
lfoot -17.8484 0.507771
ltoes -15.2861
120
root 3.65484 17.3542 3.31929 3.49168 -12.3331 -7.81204
lowerback -0.632886 5.12973 8.39775
upperback -0.323174 6.76255 3.24513
thorax 0.590565 3.37665 -1.19805
lowerneck -17.6227 -3.42065 -9.32293
upperneck 20.7613 -3.50894 5.73051
head 9.7674 -1.71866 3.07987
rclavicle -1.50704e-014 2.78299e-015
rhumerus -2.03345 -10.9101 -85.411
rradius 42.1023
rwrist -24.7325
rhand -18.2896 20.4422
rfingers 7.12502
rthumb 7.99082 -9.38673
lclavicle -1.50704e-014 2.78299e-015
lhumerus -56.446 30.847 57.8757
lradius 16.1119
lwrist -28.483
lhand 4.95493 41.0119
lfingers 7.12502
lthumb 30.327 68.5395
rfemur 23.319 6.81627 30.8331
rtibia 3.87725
rfoot -3.20633 6.25624
rtoes -10.1991
lfemur -33.7659 1.90807 -8.93597
ltibia 28.7317
lfoot -16.1133 0.370415
ltoes -15.9232
121
root 3.67827 17.3887 3.54652 3.57343 -12.5115 -7.90998
lowerback -0.967948 5.0652 8.41541
upperback -0.339029 6.63765 3.36004
thorax 0.739574 3.31824 -1.06308
lowerneck -17.48 -3.2788 -9.35086
upperneck 20.7448 -3.3129 5.71578
head 9.71857 -1.63374 3.10702
rclavicle 1.77291e-014 -6.36111e-015
rhumerus -2.32308 -10.6646 -85.4452
rradius 42.2806
rwrist -24.8301
rhand -18.2102 21
rfingers 7.12502
rthumb 8.06749 -8.82598
lclavicle 1.77291e-014 -6.36111e-015
lhumerus -57.7563 31.1504 56.9671
lradius 16.2366
lwrist -28.6056
lhand 4.66072 41.3825
lfingers 7.12502
lthumb 30.0463 68.9614
rfemur 21.9885 6.93991 30.6823
rtibia 7.46465
rfoot -3.10319 6.49836
rtoes -8.67191
lfemur -33.4297 2.16496 -9.09394
ltibia 28.8307
lfoot -14.2087 0.775085
ltoes -15.7396
122
root 3.70094 17.405 3.76725 3.55 -12.3244 -7.63046
lowerback -1.06772 4.92027 8.19378
upperback -0.527687 6.45123 3.28139
thorax 0.569564 3.21639 -1.03444
lowerneck -17.4397 -3.18525 -9.26438
upperneck 21.0378 -3.19021 5.59415
head 9.80068 -1.58802 3.07119
rclavicle -3.26131e-017 -1.39149e-014
rhumerus -2.81676 -10.5267 -85.4873
rradius 42.4161
rwrist -24.9135
rhand -18.1487 21.1423
rfingers 7.12502
rthumb 8.12685 -8.68146
lclavicle -3.26131e-017 -1.39149e-014
lhumerus -58.8212 31.1057 56.1298
lradius 16.1613
lwrist -28.6199
lhand 3.95871 41.4351
lfingers 7.12502
lthumb 29.3763 69.1335
rfemur 20.8208 6.67729 30.1857
rtibia 10.7084
rfoot -2.42219 6.74091
rtoes -6.60318
lfemur -33.0315 2.15403 -9.66757
ltibia 28.6881
lfoot -12.3019 0.808612
ltoes -16.3294
123
root 3.71041 17.4226 3.97653 3.04062 -11.9477 -6.29536
lowerback -0.756396 4.67679 6.86583
upperback -0.732203 6.19126 2.85453
thorax 0.0732469 3.07361 -0.806181
lowerneck -17.4956 -3.10761 -8.76471
upperneck 21.6352 -3.11257 5.09457
head 10.0003 -1.57526 2.82944
rclavicle 3.98719e-014 2.10712e-014
rhumerus -3.45475 -10.5552 -85.7071
rradius 42.5226
rwrist -24.9324
rhand -18.2017 21.0013
rfingers 7.12502
rthumb 8.07564 -8.82439
lclavicle 3.98719e-014 2.10712e-014
lhumerus -59.6858 30.8816 55.1517
lradius 15.9314
lwrist -28.2832
lhand 3.55538 41.4176
lfingers 7.12502
lthumb 28.9911 69.1829
rfemur 20.0062 6.33983 28.7797
rtibia 13.769
rfoot -1.48561 6.53865
rtoes -7.54018
lfemur -32.2245 2.19096 -11.3899
ltibia 28.4631
lfoot -10.6572 0.0184103
ltoes -12.7486
124
root 3.718 17.4572 4.18837 2.36818 -11.6399 -4.41808
lowerback -0.674681 4.50055 4.97134
upperback -0.6634 5.97487 2.31556
thorax -0.0471416 2.97246 -0.338496
lowerneck -17.6234 -3.09871 -8.52074
upperneck 21.952 -3.12787 4.93705
head 10.1318 -1.58246 2.73423
rclavicle -3.4427e-014 -2.42517e-014
rhumerus -3.90998 -10.8153 -85.8787
rradius 42.6599
rwrist -24.8231
rhand -17.9808 21.0635
rfingers 7.12502
rthumb 8.28883 -8.75392
lclavicle -3.4427e-014 -2.42517e-014
lhumerus -60.2908 31.0946 54.1433
lradius 15.7644
lwrist -28.5898
lhand 3.64169 41.2837
lfingers 7.12502
lthumb 29.0736 69.0347
rfemur 19.1319 5.93515 26.6721
rtibia 16.9747
rfoot -0.308114 6.47484
rtoes -7.34338
lfemur -31.2476 2.4316 -13.7035
ltibia 28.2382
lfoot -9.05671 -0.678151
ltoes -5.94234
125
root 3.73184 17.5064 4.40484 1.99711 -11.2083 -3.29558
lowerback -0.864475 4.34968 3.82434
upperback -0.495256 5.76418 2.07597
thorax 0.136165 2.87594 0.0628547
lowerneck -17.6559 -3.14487 -8.97062
upperneck 21.716 -3.20569 5.54209
head 10.0769 -1.58233 3.01159
rclavicle 2.65843e-014 3.18055e-014
rhumerus -4.34691 -10.9625 -85.7355
rradius 42.9869
rwrist -24.804
rhand -17.7212 21.4442
rfingers 7.12502
rthumb 8.53937 -8.36312
lclavicle 2.65843e-014 3.18055e-014
lhumerus -60.66 31.6795 53.35
lradius 15.4485
lwrist -29.5432
lhand 3.68002 40.7895
lfingers 7.12502
lthumb 29.1102 68.5342
rfemur 17.9303 5.48904 25.3122
rtibia 20.2749
rfoot 1.39172 6.27167
rtoes -4.70746
lfemur -30.3127 2.66015 -15.2171
ltibia 28.0126
lfoot -6.59321 -0.9976
ltoes -3.05291
126
root 3.73542 17.5414 4.60562 1.97919 -10.7566 -3.14961
lowerback -0.884918 4.21799 3.50419
upperback -0.553447 5.59308 2.10057
thorax 0.0504589 2.78994 0.258056
lowerneck -17.3735 -3.18773 -9.31896
upperneck 21.3831 -3.27391 5.90751
head 9.92328 -1.60074 3.18659
rclavicle 9.21212e-014 1.15295e-014
rhumerus -4.93004 -11.1981 -85.594
rradius 43.1813
rwrist -24.6955
rhand -17.9326 21.6374
rfingers 7.12502
rthumb 8.33541 -8.17817
lclavicle 9.21212e-014 1.15295e-014
lhumerus -61.0219 31.9182 52.7804
lradius 15.2019
lwrist -30.1743
lhand 4.11441 40.9444
lfingers 7.12502
lthumb 29.5249 68.6166
rfemur 16.4903 5.11879 25.1393
rtibia 23.4109
rfoot 3.78642 5.73376
rtoes -3.67878
lfemur -29.6857 3.17931 -15.6832
ltibia 27.9546
lfoot -6.25436 -1.93238
ltoes -10.1393
127
root 3.74302 17.5601 4.79979 1.92434 -10.3309 -2.86052
lowerback -0.761224 4.03773 3.1
upperback -0.738831 5.36939 2.0271
thorax -0.24331 2.67521 0.382127
lowerneck -16.6529 -3.12783 -9.51231
upperneck 21.1075 -3.24755 6.10909
head 9.69522 -1.58912 3.29219
rclavicle -2.62768e-014 -1.70955e-014
rhumerus -5.71181 -11.2723 -85.6212
rradius 43.1993
rwrist -24.5769
rhand -18.2768 21.3996
rfingers 7.12502
rthumb 8.00315 -8.42888
lclavicle -2.62768e-014 -1.70955e-014
lhumerus -61.7277 32.3116 51.5302
lradius 14.9437
lwrist -31.4457
lhand 4.82163 41.7203
lfingers 7.12502
lthumb 30.1998 69.2712
rfemur 15.0516 4.73868 24.7658
rtibia 26.4007
rfoot 6.70639 5.11617
rtoes -1.13778
lfemur -29.3417 3.90436 -16.367
ltibia 28.1735
lfoot -6.01015 -2.79811
ltoes -10.1518
128
root 3.76132 17.5799 4.99766 1.69755 -9.78782 -2.74375
lowerback -0.474441 3.83593 3.03725
upperback -0.824157 5.11744 1.97442
thorax -0.495696 2.54631 0.334834
lowerneck -16.1592 -3.0913 -9.79385
upperneck 20.8719 -3.25438 6.49291
head 9.5317 -1.57727 3.47209
rclavicle -2.03879e-014 -5.1684e-015
rhumerus -6.85256 -11.5493 -85.6098
rradius 43.8572
rwrist -24.2898
rhand -18.1524 21.2881
rfingers 7.12502
rthumb 8.12327 -8.5358
lclavicle -2.03879e-014 -5.1684e-015
lhumerus -62.2526 32.9019 50.1469
lradius 14.5763
lwrist -33.3123
lhand 5.54242 41.8841
lfingers 7.12502
lthumb 30.8872 69.3071
rfemur 13.7052 4.19415 24.5193
rtibia 29.4273
rfoot 9.68751 4.34481
rtoes 2.15955
lfemur -28.7809 4.1656 -16.7451
ltibia 28.4192
lfoot -5.89875 -3.77676
ltoes -8.49964
129
root 3.77876 17.5974 5.19618 1.38675 -9.38905 -3.16514
lowerback -0.0732617 3.75236 3.62746
upperback -0.743641 5.02325 2.00121
thorax -0.591276 2.49472 0.0120104
lowerneck -16.3757 -3.15066 -9.73283
upperneck 20.9578 -3.34784 6.54544
head 9.61031 -1.60747 3.46901
rclavicle -9.72802e-015 -1.82882e-014
rhumerus -7.72655 -12.0394 -85.5375
rradius 44.3895
rwrist -24.0812
rhand -17.8521 21.0481
rfingers 7.12502
rthumb 8.41308 -8.76436
lclavicle -9.72802e-015 -1.82882e-014
lhumerus -62.0309 33.0863 49.7315
lradius 14.4435
lwrist -34.1719
lhand 5.94442 41.6762
lfingers 7.12502
lthumb 31.2704 69.0257
rfemur 12.4821 3.65613 24.8452
rtibia 32.4477
rfoot 12.4949 3.61744
rtoes 3.25357
lfemur -27.8531 4.65753 -16.5329
ltibia 28.4941
lfoot -5.71332 -5.24141
ltoes -4.01255
